<svg id="Layer_1" data-name="Layer 1" xmlns="http://www.w3.org/2000/svg" viewBox="0 0 218.68 39.88">
  <defs>
    <style>
      .cls-1 {
        fill: none;
      }

      .cls-1, .cls-2 {
        stroke: #000;
        stroke-miterlimit: 10;
        stroke-width: 2px;
      }

      .cls-3 {
        fill: #0071bc;
      }
    </style>
  </defs>
  <title>NinaA-logga</title>
  <g>
    <path d="M8.6,54.63l-.3-1.22c.08-.25.15-.5.23-.76s.14-.51.2-.76a.84.84,0,0,1,.39-.4,1.62,1.62,0,0,1,.72-.14,3,3,0,0,0,.52-.08,2.52,2.52,0,0,1,.49-.07.76.76,0,0,1,.45.26,1.26,1.26,0,0,0,.4.3,2.31,2.31,0,0,0,.33-.32c.13-.15.29-.35.47-.6a4.5,4.5,0,0,1,.47-.49,1.45,1.45,0,0,1,.49-.26l.53.25a.41.41,0,0,1,.18.16.52.52,0,0,1,.05.27,2,2,0,0,1-.09.4l-.28.83c-.14.38-.25.69-.32.94a4.16,4.16,0,0,0-.15.58,6.84,6.84,0,0,0-.45.78,1.67,1.67,0,0,0-.16.65A4.25,4.25,0,0,0,13,56.06c.15.5.37,1.11.65,1.85.4,1,.81,2,1.22,3.13s.77,2.36,1.18,3.48.85,2.19,1.29,3.21a25.93,25.93,0,0,0,1.15,2.4c.3.53.52.79.67.79a.27.27,0,0,0,.27-.21,2,2,0,0,0,.09-.69,3.18,3.18,0,0,1,0-.48,4.83,4.83,0,0,1,.16-.66c.11-.34.22-.72.32-1.15.12-.65.24-1.21.34-1.7s.2-.91.27-1.26a12.84,12.84,0,0,0,.17-1.42c.06-.73.13-1.71.19-3a3.16,3.16,0,0,1,.06-.52c.05-.23.09-.48.13-.77s.08-.53.11-.74,0-.39,0-.55,0-.72-.1-1.29-.09-1-.09-1.28c.19-.79.36-1.56.52-2.31s.27-1.19.4-1.62a9.45,9.45,0,0,1,.32-1,4.8,4.8,0,0,1,.73-1.18,3.82,3.82,0,0,1,.95-.81h.15a.35.35,0,0,1,.26.07.4.4,0,0,1,.06.25,5.51,5.51,0,0,1-.17.6c0,.22.08.46.12.71s-.08.57-.13.79a4.32,4.32,0,0,0-.08.63c0,.28,0,.62,0,1,0,.15,0,.47-.05,1s-.11,1.16-.21,2c-.07,1.18-.16,2.34-.27,3.51l-.33,3.48c-.1,1.4-.24,2.68-.43,3.84a28.09,28.09,0,0,1-.67,3.1,15.77,15.77,0,0,1-.35,1.84c-.17.67-.38,1.41-.65,2.19l-.58.94a6.47,6.47,0,0,1-1.18.48,8.18,8.18,0,0,1-1.25.4c-.19,0-.47-.25-.84-.74a14.81,14.81,0,0,1-1.33-2.26c-.49-.91-.88-1.66-1.17-2.26a8.75,8.75,0,0,1-.54-1.34c0-.11-.06-.25-.11-.43l-.17-.6c-.25-.55-.57-1.23-.95-2s-.82-1.78-1.32-2.89a5.6,5.6,0,0,0-.33-.8A8.13,8.13,0,0,0,11,61l-.13.05c-.08.25-.17.56-.26.94s-.19.83-.3,1.35a7.75,7.75,0,0,1-.4.9c-.18.73-.4,1.51-.63,2.36l-.78,2.74c-.07.33-.15.66-.22,1s-.16.71-.26,1.09L7.72,72c0,.37-.11.74-.17,1.1l-.33,1.05c-.13.4-.29.89-.48,1.45a1.15,1.15,0,0,1-.27.65.88.88,0,0,1-.59.23.71.71,0,0,1-.15.16,1.16,1.16,0,0,1-.38.16c-.12,0-.22,0-.28-.2A2,2,0,0,1,5,76a5.9,5.9,0,0,1,.09-.83c.06-.37.16-.85.28-1.42l.33-1.53c.08-.37.14-.6.16-.7,0-.3.11-.7.17-1.19l.21-1.68A5.36,5.36,0,0,1,6.34,68l.21-.86c.07-.24.19-.92.38-2s.43-2.65.73-4.62S8.3,56.59,8.6,54.63Z" transform="translate(-4.98 -47.15)"/>
    <path d="M24.27,69.8l.11-.13.06-.19a12.53,12.53,0,0,1,1.78-1.81A11.2,11.2,0,0,0,28,65.86a1.26,1.26,0,0,1,.43-.43,1,1,0,0,1,.49-.13,1.83,1.83,0,0,1,1.11.33,1.56,1.56,0,0,1,.6,1q.13.58.24,1.17c.08.4.14.79.19,1.19.09.25.19.63.32,1.14a3.45,3.45,0,0,0,.28.87.61.61,0,0,0,.28.27,1.1,1.1,0,0,0,.47.08,2.13,2.13,0,0,0,.69-.12,2.4,2.4,0,0,0,.73-.42l.59-.5L35,69.8l.75,1.72a9,9,0,0,1-.79.69l-1.19.89a9.9,9.9,0,0,1-1.32.83,2.06,2.06,0,0,1-.82.27,4,4,0,0,1-2.21-.39,5.19,5.19,0,0,1-1.13-2.19,2.69,2.69,0,0,0-.22-.36c-.1-.14-.22-.3-.34-.49a4.18,4.18,0,0,0-.39-.64c-.12-.15-.21-.22-.29-.22a1.46,1.46,0,0,0-.8.4A11.14,11.14,0,0,0,25,71.52l-.23-.58c-.1-.22-.19-.49-.29-.79a1.24,1.24,0,0,0-.1-.2A.49.49,0,0,0,24.27,69.8ZM32.11,55a1,1,0,0,1,.68.19.68.68,0,0,1,.22.55c-.08.35-.14.64-.19.88-.12.45-.23.82-.33,1.1s-.16.5-.21.62a2.4,2.4,0,0,1-.46.72,3.38,3.38,0,0,1-.71.56,3.62,3.62,0,0,1-.72.42.92.92,0,0,1-.4.1l-.61-.06-.57,0a1,1,0,0,1-.39-.51,3.06,3.06,0,0,1-.14-1A2.5,2.5,0,0,1,29,57.11a2.09,2.09,0,0,1,1.21-.91l.75-.9a1.54,1.54,0,0,1,.48-.21A2.48,2.48,0,0,1,32.11,55Z" transform="translate(-4.98 -47.15)"/>
    <path d="M35,69.8a2,2,0,0,1,.19-.29l.29-.39a6.49,6.49,0,0,0,.49-.43c.2-.19.43-.4.68-.65l.82-.93,1.18-1.34L39.4,65l1.07-1.19a3.56,3.56,0,0,1,1.13-.92,2.79,2.79,0,0,1,1.27-.3,1.16,1.16,0,0,1,1,.42,2,2,0,0,1,.32,1.23,7.59,7.59,0,0,1-.32,1.65c-.21.81-.54,1.89-1,3.23l-.32.71a2.47,2.47,0,0,0-.15.43,2.3,2.3,0,0,0,0,.28.49.49,0,0,0,.14.28.59.59,0,0,0,.17-.15l.2-.22a2.32,2.32,0,0,1,.46-.59c.21-.21.45-.44.74-.69a3.44,3.44,0,0,1,.44-.63,5.55,5.55,0,0,1,.61-.57,2.07,2.07,0,0,0,.2-.24c.08-.11.18-.23.29-.36a5.12,5.12,0,0,1,.58-.5,8.22,8.22,0,0,1,.79-.55,8.45,8.45,0,0,1,.91-.41,2,2,0,0,1,.7-.15,1.87,1.87,0,0,1,1,.28,2.24,2.24,0,0,1,.77.88c.25.78.49,1.5.71,2.16a2.61,2.61,0,0,0,.46.86.75.75,0,0,0,.57.28,1,1,0,0,0,.44-.09,1.21,1.21,0,0,0,.37-.28l.75,1.72-.66.55-.65.54a2.9,2.9,0,0,1-.81.55,1.84,1.84,0,0,1-.75.16,1.8,1.8,0,0,1-.82-.19,1.74,1.74,0,0,1-.68-.56,3,3,0,0,1-.38-.55c-.15-.27-.32-.6-.52-1a7,7,0,0,1-.55-.65c-.21-.27-.45-.58-.72-1l-.17,0a2.67,2.67,0,0,0-.71.33,7.67,7.67,0,0,0-.74.58,6.29,6.29,0,0,1-1.21.94,1.19,1.19,0,0,0-.51.43,7.38,7.38,0,0,1-.9,1.17q-.63.71-1.59,1.68c-.16.17-.32.33-.49.48l-.48.46a1.37,1.37,0,0,1-.56.29,2.38,2.38,0,0,1-.68.09c-.5,0-.77-.18-.81-.52s-.09-.69-.13-1c.19-.52.4-1.18.64-2s.51-1.71.82-2.75a.63.63,0,0,1,.07-.26q.06-.15.15-.42a1.79,1.79,0,0,0,.13-.42,1.25,1.25,0,0,0,0-.31.26.26,0,0,0-.09-.21.51.51,0,0,0-.3-.07.94.94,0,0,0-.5.22,4.78,4.78,0,0,0-.74.72l-.84.88a2.54,2.54,0,0,1-.44.37,4,4,0,0,0-.44.38L36.1,71l-.11.23a1.5,1.5,0,0,1-.24.33,4,4,0,0,0-.27-.69C35.36,70.55,35.2,70.21,35,69.8Z" transform="translate(-4.98 -47.15)"/>
    <path d="M53.52,69l1.71-1.12c.06-.06.13-.15.22-.26a2.62,2.62,0,0,0,.3-.46,1.25,1.25,0,0,1,.35-.41,2.65,2.65,0,0,1,.5-.3A5,5,0,0,1,57,66c.18-.18.42-.4.71-.65l.52-.33a4.62,4.62,0,0,0,.7-.57A19.56,19.56,0,0,1,62,62a4.31,4.31,0,0,1,2.16-.81,1.08,1.08,0,0,1,.73.21.75.75,0,0,1,.23.58,1.67,1.67,0,0,1-.14.69,1.26,1.26,0,0,1-.44.51l-1,.75a10.1,10.1,0,0,1-.73.83,8.3,8.3,0,0,1-1,.88l-.32.43-.35.34c-.18.16-.41.34-.7.56A4.28,4.28,0,0,1,59.55,68c-.42.43-1,1-1.68,1.57a7.12,7.12,0,0,0-.47.6l-.88,1.24.13.17a3.24,3.24,0,0,0,.86-.45,8.43,8.43,0,0,0,1-.85l1-.94a5,5,0,0,1,.57-.48l.26-.15a2.86,2.86,0,0,0,.3-.19A7.94,7.94,0,0,1,62.29,67a2.58,2.58,0,0,1,1.39-.49.67.67,0,0,1,.6.31,1.88,1.88,0,0,1,.25.92c0,.63,0,1.23,0,1.8a1.73,1.73,0,0,0,.33,1.08,1.07,1.07,0,0,0,.91.48.62.62,0,0,0,.32-.09,2.39,2.39,0,0,0,.33-.25c.09-.11.17-.22.26-.32l.25-.3A1.53,1.53,0,0,0,67.1,70a1.42,1.42,0,0,0,.28-.22c.17.37.32.7.44,1a6.35,6.35,0,0,1,.27.74c-.29.26-.57.54-.85.82a11.3,11.3,0,0,1-.9.79,4.49,4.49,0,0,1-1.08.65,2.64,2.64,0,0,1-1.05.22,2.44,2.44,0,0,1-1.88-.7,3.43,3.43,0,0,1-.77-2.1,1.37,1.37,0,0,0,0-.34,1,1,0,0,0-.2-.37l-.21.2-.26.27-.61.47-.85.67q-.66.68-1.11,1.11c-.3.29-.51.49-.63.62a10.11,10.11,0,0,1-.88.64c-.33.21-.7.43-1.11.65-.26.14-.49.25-.68.33a1.15,1.15,0,0,1-.41.12,1.77,1.77,0,0,1-1.33-.44,1.87,1.87,0,0,1-.43-1.36,2.28,2.28,0,0,1,.21-1,3.12,3.12,0,0,1,.65-.89,2.31,2.31,0,0,0,0-.4.45.45,0,0,0-.05-.19,2.67,2.67,0,0,0-.12-.24c-.08-.17-.16-.37-.25-.59L53,69.8a2,2,0,0,0,.21-.29C53.29,69.36,53.4,69.19,53.52,69Z" transform="translate(-4.98 -47.15)"/>
  </g>
  <g>
    <line class="cls-1" x1="217.68" y1="39.53" x2="217.68"/>
    <g>
      <line class="cls-2" x1="218.34" y1="38.53" x2="190.76" y2="38.88"/>
      <line class="cls-2" x1="218.34" y1="1" x2="190.76" y2="1"/>
    </g>
  </g>
  <g>
    <path class="cls-3" d="M95,70.27H84.44l-1.78,5.11h-.82l7.41-21.19h.94L97.6,75.38h-.82ZM88.09,59.94l-3.36,9.58h10l-3.35-9.58L89.72,55.1Z" transform="translate(-4.98 -47.15)"/>
    <path class="cls-3" d="M101.8,63.09V75.38H101V60.5h.61v1.89a25.22,25.22,0,0,1,5.49-2.16l.18.62A24.43,24.43,0,0,0,101.8,63.09Z" transform="translate(-4.98 -47.15)"/>
    <path class="cls-3" d="M121.56,76.84c0,2.25-2.6,4.38-7.39,4.38-4,0-6.07-1.52-6.07-3.65a4.81,4.81,0,0,1,2.63-3.94,2.29,2.29,0,0,1-1.14-1.95,3,3,0,0,1,1.34-2.43,5,5,0,0,1-1.78-3.85c0-3,2.46-5.2,5.73-5.2a6.14,6.14,0,0,1,3.94,1.35,12,12,0,0,1,2.77-2.46l.44.62A13.05,13.05,0,0,0,119.28,62a5,5,0,0,1,1.32,3.42c0,3-2.46,5.2-5.72,5.2a6,6,0,0,1-3.36-.94,2.35,2.35,0,0,0-1.17,2c0,1.11,1,1.78,2.6,1.83l4.7.21C120.22,73.84,121.56,75,121.56,76.84Zm-.76,0c0-1.34-.88-2.3-3.24-2.42l-4.76-.23a5,5,0,0,1-1.25-.21c-1.7.91-2.69,2.16-2.69,3.59,0,1.72,1.9,3,5.31,3C118.52,80.52,120.8,78.77,120.8,76.84Zm-5.92-6.94c2.91,0,5-1.87,5-4.5s-2.16-4.5-5-4.5-5,1.87-5,4.5S112.07,69.9,114.88,69.9Z" transform="translate(-4.98 -47.15)"/>
    <path class="cls-3" d="M125.85,54.37v1.54h-.76V54.37Zm0,6.13V75.38h-.76V60.5Z" transform="translate(-4.98 -47.15)"/>
    <path class="cls-3" d="M132.44,53.78v21.6h-.76V53.78Z" transform="translate(-4.98 -47.15)"/>
    <path class="cls-3" d="M139,53.78v21.6h-.76V53.78Z" transform="translate(-4.98 -47.15)"/>
    <path class="cls-3" d="M154.71,75.35v0h-.85a5.32,5.32,0,0,1-.2-1,11.22,11.22,0,0,1-5,1.25c-2.95,0-5.11-1.66-5.11-4.29s2-4.37,5.93-4.37a30.35,30.35,0,0,1,4,.26v-1.9c0-2.77-1.66-4.47-4.58-4.47a13.41,13.41,0,0,0-4.47.82l-.26-.64A13.09,13.09,0,0,1,149,60.2a5.51,5.51,0,0,1,4,1.4,5.16,5.16,0,0,1,1.34,3.77V73A7.53,7.53,0,0,0,154.71,75.35Zm-6-.38a11.42,11.42,0,0,0,4.87-1.19V67.94a28.71,28.71,0,0,0-4-.23c-3.42,0-5.17,1.37-5.17,3.67S146.28,75,148.7,75Z" transform="translate(-4.98 -47.15)"/>
    <path class="cls-3" d="M171.11,65.34v10h-.76V65.25c0-2.83-1.84-4.35-4.46-4.35a11.43,11.43,0,0,0-5.11,1.32V75.38H160V60.5h.61v1a12.5,12.5,0,0,1,5.26-1.35,5.13,5.13,0,0,1,3.88,1.38A4.93,4.93,0,0,1,171.11,65.34Z" transform="translate(-4.98 -47.15)"/>
    <path class="cls-3" d="M187.83,53.78v21.6h-.61v-.81a10.74,10.74,0,0,1-4.73,1.1c-4.23,0-7-3.06-7-7.73s2.77-7.74,7-7.74a10.68,10.68,0,0,1,4.62,1V53.78ZM182.49,75a9.81,9.81,0,0,0,4.59-1.1V62a9.82,9.82,0,0,0-4.62-1.11c-3.7,0-6.21,2.75-6.21,7S178.76,75,182.49,75Z" transform="translate(-4.98 -47.15)"/>
    <path class="cls-3" d="M204.64,68.09h-11.5c.06,4.37,2.45,6.88,5.93,6.88a11.45,11.45,0,0,0,4.76-1l.26.59a11,11,0,0,1-5,1.13c-4,0-6.69-2.83-6.69-7.73s2.81-7.74,6.34-7.74,5.95,2.84,5.95,7.13A5.34,5.34,0,0,1,204.64,68.09Zm-11.5-.71h10.77c0-3.94-2.13-6.48-5.19-6.48S193.35,63.27,193.14,67.38Z" transform="translate(-4.98 -47.15)"/>
    <path class="cls-3" d="M209.92,63.09V75.38h-.76V60.5h.62v1.89a25.13,25.13,0,0,1,5.48-2.16l.18.62A24.62,24.62,0,0,0,209.92,63.09Z" transform="translate(-4.98 -47.15)"/>
  </g>
  <g>
    <line class="cls-1" x1="70.14" y1="39.53" x2="70.14"/>
    <g>
      <line class="cls-2" x1="69.48" y1="38.53" x2="97.06" y2="38.88"/>
      <line class="cls-2" x1="69.48" y1="1" x2="97.06" y2="1"/>
    </g>
  </g>
</svg>
